<svg width="60" height="60" viewBox="0 0 60 60" fill="none" xmlns="http://www.w3.org/2000/svg">
<circle cx="30" cy="30" r="30" fill="#1B1717" fill-opacity="0.67"/>
<path d="M22.6663 19.8346C22.6659 20.586 22.3671 21.3065 21.8355 21.8375C21.3039 22.3686 20.5831 22.6667 19.8317 22.6663C19.0803 22.6659 18.3599 22.3671 17.8288 21.8355C17.2978 21.3039 16.9996 20.5831 17 19.8317C17.0004 19.0803 17.2992 18.3599 17.8308 17.8288C18.3624 17.2978 19.0832 16.9996 19.8346 17C20.586 17.0004 21.3065 17.2992 21.8375 17.8308C22.3686 18.3624 22.6667 19.0832 22.6663 19.8346ZM22.7513 24.7643H17.085V42.4998H22.7513V24.7643ZM31.7041 24.7643H26.0661V42.4998H31.6474V33.1929C31.6474 28.0082 38.4045 27.5266 38.4045 33.1929V42.4998H44V31.2664C44 22.5261 33.999 22.8519 31.6474 27.1441L31.7041 24.7643Z" fill="#23C86F"/>
</svg>
