<svg width="60" height="60" viewBox="0 0 60 60" fill="none" xmlns="http://www.w3.org/2000/svg">
<circle cx="30" cy="30" r="30" fill="#1B1717" fill-opacity="0.67"/>
<path d="M43.9998 34.1196V40.0537C44.0044 40.49 43.9145 40.9221 43.7361 41.3203C43.5577 41.7184 43.2952 42.0732 42.9666 42.3602C42.638 42.6472 42.2511 42.8596 41.8325 42.9828C41.414 43.1059 40.9737 43.1369 40.542 43.0737C34.558 42.305 28.9998 39.5671 24.7432 35.2914C20.4867 31.0157 17.7738 25.4453 17.0319 19.4579C16.9688 19.0274 16.9995 18.5885 17.1218 18.171C17.2441 17.7535 17.4551 17.3674 17.7404 17.0391C18.0258 16.7107 18.3787 16.4479 18.775 16.2685C19.1713 16.0892 19.6017 15.9976 20.0367 16H25.8803C26.2536 15.9978 26.6145 16.1339 26.8933 16.382C27.1722 16.6302 27.3492 16.9729 27.3903 17.3439C27.5401 19.3228 28.0519 21.2574 28.9002 23.0516C29.0457 23.3913 29.0615 23.7727 28.9446 24.1233C28.8277 24.474 28.5863 24.7696 28.266 24.9541L26.9675 25.694C26.7803 25.7969 26.6171 25.9384 26.4886 26.1091C26.3602 26.2798 26.2694 26.4758 26.2223 26.6842C26.1752 26.8925 26.1729 27.1085 26.2154 27.3178C26.258 27.5272 26.3445 27.7251 26.4692 27.8985C27.963 30.0868 29.8527 31.9765 32.0409 33.4703C32.2144 33.595 32.4123 33.6815 32.6216 33.724C32.831 33.7666 33.047 33.7642 33.2553 33.7172C33.4637 33.6701 33.6597 33.5793 33.8304 33.4508C34.001 33.3224 34.1425 33.1592 34.2455 32.972L34.9854 31.6734C35.1809 31.349 35.4913 31.1099 35.8549 31.0036C36.2185 30.8974 36.6088 30.9316 36.9483 31.0997C38.7424 31.948 40.6771 32.4598 42.656 32.6096C43.027 32.6507 43.3697 32.8277 43.6178 33.1066C43.866 33.3854 44.0021 33.7463 43.9998 34.1196Z" fill="#23C86F"/>
</svg>
